<?xml version="1.0"?>
<svg version="1.1" xmlns="http://www.w3.org/2000/svg" width="208" height="59" style=""><path fill="#ff0048" d="M39.06,44.89c0.03,0.51-0.12,0.81-0.69,0.81l-2.43,0c-0.63,0-0.75-0.3-0.78-0.99l-0.42-12.18l-0.06,0l-5.1,12.63c-0.18,0.48-0.48,0.54-0.81,0.54l-1.05,0c-0.45,0-0.72-0.09-0.93-0.57l-5.67-12.6l-0.06,0l-0.27,12.42c0,0.66-0.27,0.75-0.81,0.75l-2.04,0c-0.57,0-0.81-0.21-0.78-0.78l0.75-19.17c0.03-0.63,0.24-0.81,0.72-0.81l1.77,0c0.6,0,0.81,0.21,1.02,0.66l6.93,14.82l0.06,0l6.33-14.82c0.18-0.45,0.42-0.66,0.96-0.66l1.77,0c0.48,0,0.66,0.18,0.69,0.66z M57.585,38.38c0,0.72-0.24,0.87-0.99,0.87l-8.79,0c0.24,2.31,1.92,3.9,4.29,3.9c1.26,0,2.58-0.3,3.69-0.72c0.12-0.03,0.21-0.09,0.33-0.09c0.21,0,0.36,0.12,0.42,0.36l0.42,1.53c0.03,0.15,0.06,0.27,0.06,0.36c0,0.21-0.12,0.36-0.48,0.51c-1.47,0.66-3.48,0.96-5.04,0.96c-4.71,0-7.5-3-7.5-7.68c0-4.5,2.97-7.62,7.44-7.62c1.83,0,3.33,0.69,4.38,1.8c1.38,1.44,1.77,3.33,1.77,5.37l0,0.45z M54.015,36.88l0-0.33c-0.06-1.56-0.96-3-2.79-3c-1.95,0-3.12,1.56-3.36,3.33l6.15,0z M74.25,45.34c0,0.27-0.27,0.36-0.57,0.36l-2.58,0c-0.54,0-0.9-0.15-1.2-0.63l-3.84-6.3l-0.33,0.3l0,4.17l0,1.71c0,0.51-0.21,0.75-0.69,0.75l-2.25,0c-0.45,0-0.69-0.27-0.69-0.72l0-19.68c0-0.48,0.18-0.66,0.63-0.72l2.19-0.3c0.09,0,0.15-0.03,0.24-0.03c0.36,0,0.57,0.18,0.57,0.69l0,5.04l0,6.99l0.06,0l3.93-5.4c0.24-0.33,0.42-0.42,0.81-0.42l2.67,0c0.24,0,0.39,0.12,0.39,0.3c0,0.09-0.03,0.21-0.12,0.33l-4.29,5.4l4.86,7.59c0.12,0.18,0.21,0.39,0.21,0.57z M91.335,44.86c0,0.63-0.18,0.84-0.78,0.84l-1.92,0c-0.39,0-0.69-0.21-0.72-0.6l-0.03-0.75c-1.38,1.11-3.03,1.71-4.77,1.71c-3.36,0-4.74-2.13-4.74-5.37l0-8.85c0-0.51,0.3-0.69,0.78-0.69l2.1,0c0.48,0,0.75,0.15,0.75,0.69l0,8.22c0,1.65,0.42,2.79,2.22,2.79c1.14,0,2.58-0.63,3.48-1.44l0-9.57c0-0.51,0.27-0.69,0.75-0.69l2.13,0c0.48,0,0.75,0.15,0.75,0.69l0,13.02z M106.56,41.41c0,3.15-2.73,4.65-5.79,4.65c-1.56,0-3.27-0.45-4.62-1.05c-0.27-0.12-0.36-0.3-0.36-0.48c0-0.09,0.03-0.18,0.06-0.27l0.48-1.53c0.09-0.3,0.24-0.42,0.42-0.42c0.09,0,0.18,0,0.33,0.06c1.32,0.54,2.73,0.93,3.78,0.93c1.32,0,2.22-0.6,2.22-1.59c0-0.84-0.57-1.29-1.8-1.77l-2.37-0.9c-1.71-0.63-3.09-1.95-3.09-3.99c0-2.94,2.76-4.29,5.43-4.29c1.44,0,2.85,0.24,4.35,0.9c0.24,0.12,0.36,0.24,0.36,0.42c0,0.09-0.03,0.18-0.06,0.3l-0.51,1.62c-0.06,0.21-0.21,0.33-0.42,0.33c-0.09,0-0.21-0.03-0.3-0.06c-0.99-0.39-2.28-0.72-3.24-0.72c-1.26,0-1.89,0.69-1.89,1.38c0,0.66,0.33,1.08,1.47,1.53l2.7,1.11c1.59,0.66,2.85,1.89,2.85,3.84z M115.035,27.34c0,1.17-1.02,1.89-2.01,1.89s-2.04-0.66-2.04-1.86s0.99-1.92,2.04-1.92c1.02,0,2.01,0.69,2.01,1.89z M114.855,44.95c0,0.54-0.24,0.75-0.75,0.75l-2.1,0c-0.54,0-0.78-0.21-0.78-0.75l0-13.11c0-0.51,0.3-0.69,0.78-0.69l2.1,0c0.48,0,0.75,0.15,0.75,0.69l0,13.11z M133.56,44.71c0,4.86-2.07,7.56-7.11,7.56c-1.47,0-3-0.3-4.44-0.93c-0.33-0.15-0.48-0.33-0.48-0.6c0-0.15,0.06-0.27,0.09-0.39l0.42-1.32c0.12-0.33,0.24-0.54,0.45-0.54c0.15,0,0.3,0.06,0.45,0.12c1.08,0.45,2.31,0.78,3.36,0.78c3,0,3.63-1.59,3.63-3.99l0-1.2c-0.9,0.87-2.58,1.53-3.9,1.53c-1.86,0-3.36-0.6-4.41-1.71c-1.26-1.29-1.89-3.24-1.89-5.43c0-4.02,2.34-7.8,6.69-7.8c0.72,0,1.47,0.18,2.16,0.48c0.57,0.24,1.17,0.69,1.53,1.2l0.06-0.78c0.03-0.39,0.24-0.54,0.69-0.54l1.98,0c0.54,0,0.72,0.21,0.72,0.72l0,12.84z M129.93,41.35l0-6.18c-0.6-0.81-1.77-1.47-2.91-1.47c-0.93,0-1.68,0.36-2.22,0.87c-0.93,0.9-1.29,2.43-1.29,3.81c0,1.32,0.3,2.73,1.2,3.6c0.54,0.54,1.32,0.81,2.13,0.81c1.17,0,2.49-0.69,3.09-1.44z M147.585,38.8c0,2.73-0.57,4.8-2.1,6c-0.99,0.78-2.43,1.2-4.38,1.2c-0.54,0-1.5-0.09-2.16-0.21c-0.36-0.06-0.48-0.24-0.48-0.48c0-0.09,0-0.18,0.03-0.3l0.3-1.68c0.06-0.27,0.15-0.48,0.51-0.48c0.06,0,0.12,0.03,0.21,0.03c0.54,0.09,1.14,0.18,1.59,0.18c0.78,0,1.59-0.27,2.01-0.81c0.42-0.57,0.63-1.5,0.63-2.79l0-12l-3.39,0c-0.48,0-0.63-0.3-0.63-0.66l0-1.23c0-0.42,0.21-0.63,0.63-0.63l6.51,0c0.45,0,0.72,0.27,0.72,0.69l0,13.17z M157.53,27.34c0,1.17-1.02,1.89-2.01,1.89s-2.04-0.66-2.04-1.86s0.99-1.92,2.04-1.92c1.02,0,2.01,0.69,2.01,1.89z M157.35,44.95c0,0.54-0.24,0.75-0.75,0.75l-2.1,0c-0.54,0-0.78-0.21-0.78-0.75l0-13.11c0-0.51,0.3-0.69,0.78-0.69l2.1,0c0.48,0,0.75,0.15,0.75,0.69l0,13.11z M176.145,44.92c0,0.51-0.18,0.78-0.72,0.78l-2.16,0c-0.54,0-0.72-0.27-0.72-0.78l0-8.16c0-1.65-0.45-2.82-2.28-2.82c-1.17,0-2.61,0.63-3.54,1.44l0,9.57c0,0.51-0.21,0.75-0.72,0.75l-2.19,0c-0.45,0-0.72-0.24-0.72-0.72l0-13.08c0-0.48,0.21-0.75,0.75-0.75l1.95,0c0.42,0,0.69,0.12,0.72,0.57l0.03,0.78c1.38-1.11,3.12-1.74,4.86-1.74c3.36,0,4.74,2.1,4.74,5.37l0,8.79z M194.76,44.92c0,0.51-0.18,0.78-0.72,0.78l-2.16,0c-0.54,0-0.72-0.27-0.72-0.78l0-8.16c0-1.65-0.45-2.82-2.28-2.82c-1.17,0-2.61,0.63-3.54,1.44l0,9.57c0,0.51-0.21,0.75-0.72,0.75l-2.19,0c-0.45,0-0.72-0.24-0.72-0.72l0-13.08c0-0.48,0.21-0.75,0.75-0.75l1.95,0c0.42,0,0.69,0.12,0.72,0.57l0.03,0.78c1.38-1.11,3.12-1.74,4.86-1.74c3.36,0,4.74,2.1,4.74,5.37l0,8.79z"/><path fill="#" d=""/></svg>
